<svg width="74" height="57" viewBox="0 0 74 57" fill="none" xmlns="http://www.w3.org/2000/svg">
<g clip-path="url(#clip0_541_529)" filter="url(#filter0_d_541_529)">
<path d="M28.9108 18.8676C27.9267 20.8249 27.004 22.6786 26.0669 24.5233C22.4086 31.7208 18.7646 38.9261 15.0711 46.1068C14.1601 47.879 12.5404 48.6997 10.5788 48.89C7.63053 49.1761 5.72764 47.6705 4.4982 45.2265C3.9135 44.0666 3.85738 42.7281 4.38596 41.5099C5.24343 39.5319 6.16616 37.5798 7.14241 35.6562C10.8764 28.302 14.643 20.9634 18.3953 13.6183C20.2316 10.0222 22.0144 6.39751 23.9343 2.84665C24.3702 2.04146 25.1885 1.34631 25.9873 0.844037C28.3796 -0.664074 31.705 -0.0906033 33.4696 2.09454C34.1156 2.89455 34.6612 3.79553 35.1297 4.71205C37.5821 9.51988 39.99 14.3484 42.4228 19.1666C46.0537 26.3563 49.6624 33.5564 53.3455 40.7203C54.4079 42.7863 53.7553 46.0395 51.7859 47.5294C49.3466 49.3754 45.9689 49.2434 44.31 47.7366C43.3129 46.8304 42.5755 45.7547 41.9765 44.5728C37.7674 36.2749 33.5623 27.9758 29.3532 19.6779C29.2305 19.4359 29.0935 19.2003 28.9121 18.8689L28.9108 18.8676Z" fill="white"/>
<path d="M69.9561 24.645C69.9561 30.5985 69.9026 36.5532 69.9769 42.5067C70.02 45.9605 68.0192 48.0239 65.1414 48.7178C62.398 49.3793 60.4756 48.9418 58.604 46.6479C57.6225 45.4453 57.1697 44.1106 57.1749 42.5326C57.2088 30.5389 57.3028 18.5427 57.1383 6.55026C57.0796 2.23435 61.0903 -0.231702 64.2709 0.0802765C67.4463 0.39096 69.9274 2.99294 69.9443 6.26418C69.9743 12.1322 69.9548 17.999 69.9561 23.867C69.9561 24.1259 69.9561 24.3848 69.9561 24.6437V24.645Z" fill="white"/>
</g>
<defs>
<filter id="filter0_d_541_529" x="0" y="0" width="74" height="57" filterUnits="userSpaceOnUse" color-interpolation-filters="sRGB">
<feFlood flood-opacity="0" result="BackgroundImageFix"/>
<feColorMatrix in="SourceAlpha" type="matrix" values="0 0 0 0 0 0 0 0 0 0 0 0 0 0 0 0 0 0 127 0" result="hardAlpha"/>
<feOffset dy="4"/>
<feGaussianBlur stdDeviation="2"/>
<feComposite in2="hardAlpha" operator="out"/>
<feColorMatrix type="matrix" values="0 0 0 0 0 0 0 0 0 0 0 0 0 0 0 0 0 0 0.25 0"/>
<feBlend mode="normal" in2="BackgroundImageFix" result="effect1_dropShadow_541_529"/>
<feBlend mode="normal" in="SourceGraphic" in2="effect1_dropShadow_541_529" result="shape"/>
</filter>
<clipPath id="clip0_541_529">
<rect width="66" height="49" fill="white" transform="translate(4)"/>
</clipPath>
</defs>
</svg>
